<svg width="1920" height="418" viewBox="0 0 1920 418" fill="none" xmlns="http://www.w3.org/2000/svg">
<style>
    .mobile, .desktop {
        display: none;
    }

    @media (min-width: 768px) {
        .desktop {
            display: unset;
        }
    }

    @media (max-width: 767px) {
        .mobile {
            display: unset;
        }
    }
</style>
<path class="mobile" fill-rule="evenodd" clip-rule="evenodd" d="M1623.25 387.771L1920 405.7V20.9995L1646.41 4.47025C1609.63 2.24809 1572.82 0.922219 1536 0.491982C1435.36 -0.684165 1334.72 4.83085 1234.73 17.0166C1052.25 39.2563 867.748 39.2563 685.269 17.0166C585.283 4.83085 484.638 -0.684165 384 0.491982C347.184 0.922219 310.37 2.24809 273.589 4.47025L0 20.9995V405.7L296.746 387.771C410.849 380.878 525.342 384.367 638.813 398.196C852.148 424.196 1067.85 424.196 1281.19 398.196C1394.66 384.367 1509.15 380.878 1623.25 387.771Z" fill="#277AC7"/>
<path class="desktop" fill-rule="evenodd" clip-rule="evenodd" d="M1623.25 387.771L1852.14 401.6C1888.94 403.823 1920 374.58 1920 337.716V81.2496C1920 47.4023 1893.65 19.4073 1859.86 17.3661L1646.41 4.47025C1609.63 2.24809 1572.82 0.922219 1536 0.491982C1435.36 -0.684165 1334.72 4.83085 1234.73 17.0166C1052.25 39.2563 867.748 39.2563 685.269 17.0166C585.283 4.83085 484.638 -0.684165 384 0.491982C347.184 0.922219 310.37 2.24809 273.589 4.47025L60.1404 17.3661C26.3547 19.4073 0 47.4023 0 81.2496V337.716C0 374.58 31.0627 403.823 67.8596 401.6L296.746 387.771C410.849 380.878 525.342 384.367 638.813 398.196C852.148 424.196 1067.85 424.196 1281.19 398.196C1394.66 384.367 1509.15 380.878 1623.25 387.771Z" fill="#277AC7"/>
</svg>
