<svg width="1920" height="128" viewBox="0 0 1920 128" fill="none" xmlns="http://www.w3.org/2000/svg">
<style>
    .mobile, .desktop {
        display: none;
    }

    @media (min-width: 768px) {
        .desktop {
            display: unset;
        }
    }

    @media (max-width: 767px) {
        .mobile {
            display: unset;
        }
    }
</style>
<path class="mobile" fill-rule="evenodd" clip-rule="evenodd" d="M273.588 6.57143C412.363 -6.61933 551.613 0.0572726 689.62 26.5189C870.17 61.138 1052.72 61.138 1233.27 26.5189C1371.28 0.0572696 1510.53 -6.61933 1649.31 6.57143L1920 32.3205V107.956L1646.41 81.9507C1510.54 69.0359 1374.2 75.5728 1239.08 101.481C1054.67 136.84 868.22 136.84 683.813 101.481C548.693 75.5728 412.356 69.0359 276.483 81.9507L0 108.524V32.5764L273.588 6.57143Z" fill="#277AC7"/>
<path class="desktop" fill-rule="evenodd" clip-rule="evenodd" d="M273.588 6.57143C412.363 -6.61933 551.613 0.0572726 689.62 26.5189C870.17 61.138 1052.72 61.138 1233.27 26.5189C1371.28 0.0572696 1510.53 -6.61933 1649.31 6.57143L1885.92 29.0783C1905.24 30.9165 1920 47.1463 1920 66.5583V66.5583C1920 88.7587 1900.89 106.139 1878.79 104.038L1646.41 81.9507C1510.54 69.0359 1374.2 75.5728 1239.08 101.481C1054.67 136.84 868.22 136.84 683.813 101.481C548.693 75.5728 412.356 69.0359 276.483 81.9507L41.396 104.545C19.204 106.678 0 89.2313 0 66.937V66.937C0 47.4558 14.8126 31.1684 34.2064 29.325L273.588 6.57143Z" fill="#277AC7"/>
</svg>
