<svg xmlns="http://www.w3.org/2000/svg" width="17" height="16" viewBox="0 0 17 16" fill="none"><path d="M8.8 0a8.02 8.02 0 0 1 4.116 1.1c1.256.733 2.25 1.728 2.984 2.984S17 6.713 17 8.2a7.97 7.97 0 0 1-1.564 4.821 8.03 8.03 0 0 1-4.042 2.963c-.192.036-.335.01-.427-.075s-.14-.192-.14-.32l.005-.817.005-1.436c0-.69-.185-1.196-.555-1.516.406-.043.77-.107 1.094-.192s.66-.224 1.004-.417.633-.43.865-.7.42-.655.566-1.12.22-1.002.22-1.607a3.16 3.16 0 0 0-.843-2.2c.263-.648.235-1.374-.086-2.178-.2-.064-.488-.025-.865.117a5.75 5.75 0 0 0-.982.47l-.406.256a7.58 7.58 0 0 0-2.05-.278 7.58 7.58 0 0 0-2.05.278l-.454-.288c-.19-.114-.486-.25-.892-.41s-.708-.208-.908-.144c-.32.804-.35 1.53-.085 2.178a3.16 3.16 0 0 0-.844 2.2c0 .605.073 1.14.22 1.602s.333.836.56 1.12.514.523.86.715.68.33 1.004.417.69.15 1.094.192c-.278.256-.452.623-.523 1.1-.15.07-.3.125-.48.16a3.02 3.02 0 0 1-.609.053c-.235 0-.468-.076-.7-.23s-.43-.376-.593-.667c-.135-.228-.308-.413-.518-.555s-.386-.228-.53-.256l-.214-.032c-.15 0-.253.016-.3.048s-.075.073-.053.123a.59.59 0 0 0 .096.149.78.78 0 0 0 .139.128l.075.053c.157.07.31.206.464.406s.265.38.336.545l.107.246c.093.27.25.49.47.657s.46.274.715.32a4.56 4.56 0 0 0 .742.075c.238.004.436-.01.593-.037l.246-.043.005.945.005.582c0 .128-.046.235-.14.32s-.235.1-.427.075a8.03 8.03 0 0 1-4.041-2.963A7.97 7.97 0 0 1 .599 8.2a8.02 8.02 0 0 1 1.1-4.116c.733-1.256 1.728-2.25 2.984-2.984A8.02 8.02 0 0 1 8.799 0zM3.706 11.777c.02-.05-.004-.093-.075-.128-.07-.02-.117-.014-.14.02-.02.05.004.092.075.128.064.043.1.036.14-.02zm.33.363c.05-.036.043-.093-.02-.17-.07-.064-.128-.075-.17-.032-.05.036-.043.092.02.17.07.07.128.082.17.032zm.32.48c.064-.05.064-.118 0-.203-.057-.092-.117-.114-.182-.064-.064.036-.064.1 0 .192s.125.118.182.075zm.448.448c.057-.057.043-.124-.043-.203-.085-.085-.157-.096-.214-.032-.064.057-.05.125.043.203.085.085.157.096.214.032zm.61.267c.02-.078-.025-.135-.14-.17-.107-.028-.174-.004-.203.075s.018.132.14.16c.107.043.174.02.203-.064zm.673.053c0-.093-.06-.132-.182-.117-.114 0-.17.04-.17.117 0 .093.06.132.182.117.114 0 .17-.04.17-.117zm.62-.107c-.014-.078-.078-.1-.192-.096-.114.02-.164.075-.15.16s.078.114.192.085.164-.078.15-.15z" fill="#f0f1f3"/></svg>
