<svg xmlns="http://www.w3.org/2000/svg" width="17" height="16" viewBox="0 0 17 16" fill="none"><path d="M4.063 5.2V16H.466V5.2h3.597zm.23-3.335c.007.53-.176.974-.55 1.33s-.866.534-1.477.534h-.022c-.596 0-1.075-.178-1.44-.534s-.545-.8-.545-1.33C.26 1.326.446.88.82.53S1.683 0 2.286 0s1.086.176 1.45.53.55.797.556 1.335zM17 9.81V16h-3.586v-5.777c0-.763-.147-1.36-.44-1.793s-.754-.648-1.38-.648c-.458 0-.84.125-1.15.376a2.32 2.32 0 0 0-.692.932c-.08.218-.12.512-.12.883V16H6.046l.022-7.052-.01-3.226-.01-.523h3.586v1.57H9.6a4.74 4.74 0 0 1 .447-.61c.152-.174.358-.363.616-.567a2.83 2.83 0 0 1 .948-.474 4.32 4.32 0 0 1 1.248-.169c1.242 0 2.242.412 2.997 1.237S17 8.218 17 9.81z" fill="#f0f1f3"/></svg>
