<svg width="382" height="79" viewBox="0 0 382 79" fill="none" xmlns="http://www.w3.org/2000/svg">
<path d="M0 14.3811V35.2523C0 35.3712 0.0594623 35.4901 0.0594623 35.5496L22.3577 71.7026C22.4767 71.8809 22.6551 71.9999 22.8929 71.9999H35.7367C36.2124 71.9999 36.5097 71.4647 36.2719 71.1079L1.18924 14.1433C0.773007 13.5486 0 13.7865 0 14.3811Z" fill="#364048"/>
<path d="M17.3629 23.1816C17.5413 23.479 17.8981 23.5384 18.1954 23.36C26.4606 18.6625 37.0449 21.2789 42.0397 29.4252C47.0939 37.5715 44.656 48.2152 36.7475 53.4478C36.4502 53.6262 36.3908 53.983 36.5692 54.2803L42.2181 63.4375C42.3964 63.7348 42.7532 63.7942 43.0505 63.6159C56.5484 54.9344 60.7108 36.739 52.2671 23.0033C43.7641 9.38643 25.6281 4.92678 11.8329 13.0731C11.5356 13.2515 11.4762 13.6082 11.6545 13.9056C13.5573 16.9976 15.4601 20.0896 17.3629 23.1816Z" fill="#364048"/>
<path d="M8.20577 61.178C5.6489 61.178 3.15149 61.2374 0.594621 61.2374C0.237848 61.2374 0 60.9996 0 60.6428V49.8207C0 49.4639 0.29731 49.2261 0.594621 49.2261H1.36763C1.7244 49.2261 2.02171 49.2261 2.37848 49.2261C2.61633 49.2261 2.79472 49.345 2.91364 49.5234L3.32988 50.2369C5.1732 53.5668 6.95706 56.8967 8.80039 60.286C8.97878 60.7023 8.68146 61.178 8.20577 61.178Z" fill="#364048"/>
<path d="M120.312 36.9688H107.984L105.641 44H98.1641L110.867 9.875H117.383L130.156 44H122.68L120.312 36.9688ZM109.883 31.2734H118.414L114.125 18.5L109.883 31.2734ZM131.844 31.1328C131.844 27.1797 132.727 24.0312 134.492 21.6875C136.273 19.3438 138.703 18.1719 141.781 18.1719C144.25 18.1719 146.289 19.0938 147.898 20.9375V8H154.695V44H148.578L148.25 41.3047C146.562 43.4141 144.391 44.4688 141.734 44.4688C138.75 44.4688 136.352 43.2969 134.539 40.9531C132.742 38.5938 131.844 35.3203 131.844 31.1328ZM138.617 31.625C138.617 34 139.031 35.8203 139.859 37.0859C140.688 38.3516 141.891 38.9844 143.469 38.9844C145.562 38.9844 147.039 38.1016 147.898 36.3359V26.3281C147.055 24.5625 145.594 23.6797 143.516 23.6797C140.25 23.6797 138.617 26.3281 138.617 31.625ZM174.195 24.9922C173.273 24.8672 172.461 24.8047 171.758 24.8047C169.195 24.8047 167.516 25.6719 166.719 27.4062V44H159.945V18.6406H166.344L166.531 21.6641C167.891 19.3359 169.773 18.1719 172.18 18.1719C172.93 18.1719 173.633 18.2734 174.289 18.4766L174.195 24.9922ZM184.625 44H177.828V18.6406H184.625V44ZM177.43 12.0781C177.43 11.0625 177.766 10.2266 178.438 9.57031C179.125 8.91406 180.055 8.58594 181.227 8.58594C182.383 8.58594 183.305 8.91406 183.992 9.57031C184.68 10.2266 185.023 11.0625 185.023 12.0781C185.023 13.1094 184.672 13.9531 183.969 14.6094C183.281 15.2656 182.367 15.5938 181.227 15.5938C180.086 15.5938 179.164 15.2656 178.461 14.6094C177.773 13.9531 177.43 13.1094 177.43 12.0781ZM204.922 44C204.609 43.3906 204.383 42.6328 204.242 41.7266C202.602 43.5547 200.469 44.4688 197.844 44.4688C195.359 44.4688 193.297 43.75 191.656 42.3125C190.031 40.875 189.219 39.0625 189.219 36.875C189.219 34.1875 190.211 32.125 192.195 30.6875C194.195 29.25 197.078 28.5234 200.844 28.5078H203.961V27.0547C203.961 25.8828 203.656 24.9453 203.047 24.2422C202.453 23.5391 201.508 23.1875 200.211 23.1875C199.07 23.1875 198.172 23.4609 197.516 24.0078C196.875 24.5547 196.555 25.3047 196.555 26.2578H189.781C189.781 24.7891 190.234 23.4297 191.141 22.1797C192.047 20.9297 193.328 19.9531 194.984 19.25C196.641 18.5312 198.5 18.1719 200.562 18.1719C203.688 18.1719 206.164 18.9609 207.992 20.5391C209.836 22.1016 210.758 24.3047 210.758 27.1484V38.1406C210.773 40.5469 211.109 42.3672 211.766 43.6016V44H204.922ZM199.32 39.2891C200.32 39.2891 201.242 39.0703 202.086 38.6328C202.93 38.1797 203.555 37.5781 203.961 36.8281V32.4688H201.43C198.039 32.4688 196.234 33.6406 196.016 35.9844L195.992 36.3828C195.992 37.2266 196.289 37.9219 196.883 38.4688C197.477 39.0156 198.289 39.2891 199.32 39.2891ZM222.195 18.6406L222.406 21.5703C224.219 19.3047 226.648 18.1719 229.695 18.1719C232.383 18.1719 234.383 18.9609 235.695 20.5391C237.008 22.1172 237.68 24.4766 237.711 27.6172V44H230.938V27.7812C230.938 26.3438 230.625 25.3047 230 24.6641C229.375 24.0078 228.336 23.6797 226.883 23.6797C224.977 23.6797 223.547 24.4922 222.594 26.1172V44H215.82V18.6406H222.195ZM283.297 27.7109C283.297 31.0703 282.703 34.0156 281.516 36.5469C280.328 39.0781 278.625 41.0312 276.406 42.4062C274.203 43.7812 271.672 44.4688 268.812 44.4688C265.984 44.4688 263.461 43.7891 261.242 42.4297C259.023 41.0703 257.305 39.1328 256.086 36.6172C254.867 34.0859 254.25 31.1797 254.234 27.8984V26.2109C254.234 22.8516 254.836 19.8984 256.039 17.3516C257.258 14.7891 258.969 12.8281 261.172 11.4688C263.391 10.0937 265.922 9.40625 268.766 9.40625C271.609 9.40625 274.133 10.0937 276.336 11.4688C278.555 12.8281 280.266 14.7891 281.469 17.3516C282.688 19.8984 283.297 22.8438 283.297 26.1875V27.7109ZM276.172 26.1641C276.172 22.5859 275.531 19.8672 274.25 18.0078C272.969 16.1484 271.141 15.2188 268.766 15.2188C266.406 15.2188 264.586 16.1406 263.305 17.9844C262.023 19.8125 261.375 22.5 261.359 26.0469V27.7109C261.359 31.1953 262 33.8984 263.281 35.8203C264.562 37.7422 266.406 38.7031 268.812 38.7031C271.172 38.7031 272.984 37.7812 274.25 35.9375C275.516 34.0781 276.156 31.375 276.172 27.8281V26.1641ZM302.211 24.9922C301.289 24.8672 300.477 24.8047 299.773 24.8047C297.211 24.8047 295.531 25.6719 294.734 27.4062V44H287.961V18.6406H294.359L294.547 21.6641C295.906 19.3359 297.789 18.1719 300.195 18.1719C300.945 18.1719 301.648 18.2734 302.305 18.4766L302.211 24.9922ZM313.461 22.6719L316.789 21.5703V25.4609L313.461 26.5625V44H306.688V28.8125L303.594 29.8438V25.9531L306.688 24.9219V8H313.461V22.6719ZM319.109 31.0859C319.109 28.5703 319.594 26.3281 320.562 24.3594C321.531 22.3906 322.922 20.8672 324.734 19.7891C326.562 18.7109 328.68 18.1719 331.086 18.1719C334.508 18.1719 337.297 19.2188 339.453 21.3125C341.625 23.4062 342.836 26.25 343.086 29.8438L343.133 31.5781C343.133 35.4688 342.047 38.5938 339.875 40.9531C337.703 43.2969 334.789 44.4688 331.133 44.4688C327.477 44.4688 324.555 43.2969 322.367 40.9531C320.195 38.6094 319.109 35.4219 319.109 31.3906V31.0859ZM325.883 31.5781C325.883 33.9844 326.336 35.8281 327.242 37.1094C328.148 38.375 329.445 39.0078 331.133 39.0078C332.773 39.0078 334.055 38.3828 334.977 37.1328C335.898 35.8672 336.359 33.8516 336.359 31.0859C336.359 28.7266 335.898 26.8984 334.977 25.6016C334.055 24.3047 332.758 23.6562 331.086 23.6562C329.43 23.6562 328.148 24.3047 327.242 25.6016C326.336 26.8828 325.883 28.875 325.883 31.5781ZM332.422 8H339.805L333.312 15.2656H327.805L332.422 8ZM369.359 34.7891L372.688 18.6406H379.227L372.758 44H367.086L362.281 28.0391L357.477 44H351.828L345.359 18.6406H351.898L355.203 34.7656L359.844 18.6406H364.742L369.359 34.7891Z" fill="#364048"/>
<path d="M113.117 67.7812L115.742 54.9375H118.684L114.746 72H111.91L108.664 59.543L105.348 72H102.5L98.5625 54.9375H101.504L104.152 67.7578L107.41 54.9375H109.895L113.117 67.7812ZM125.785 72.2344C123.98 72.2344 122.516 71.668 121.391 70.5352C120.273 69.3945 119.715 67.8789 119.715 65.9883V65.6367C119.715 64.3711 119.957 63.2422 120.441 62.25C120.934 61.25 121.621 60.4727 122.504 59.918C123.387 59.3633 124.371 59.0859 125.457 59.0859C127.184 59.0859 128.516 59.6367 129.453 60.7383C130.398 61.8398 130.871 63.3984 130.871 65.4141V66.5625H122.586C122.672 67.6094 123.02 68.4375 123.629 69.0469C124.246 69.6562 125.02 69.9609 125.949 69.9609C127.254 69.9609 128.316 69.4336 129.137 68.3789L130.672 69.8438C130.164 70.6016 129.484 71.1914 128.633 71.6133C127.789 72.0273 126.84 72.2344 125.785 72.2344ZM125.445 61.3711C124.664 61.3711 124.031 61.6445 123.547 62.1914C123.07 62.7383 122.766 63.5 122.633 64.4766H128.059V64.2656C127.996 63.3125 127.742 62.5938 127.297 62.1094C126.852 61.6172 126.234 61.3711 125.445 61.3711ZM144.219 65.7891C144.219 67.7578 143.777 69.3242 142.895 70.4883C142.02 71.6523 140.812 72.2344 139.273 72.2344C137.789 72.2344 136.633 71.6992 135.805 70.6289L135.664 72H133.086V54H135.934V60.5391C136.754 59.5703 137.859 59.0859 139.25 59.0859C140.797 59.0859 142.012 59.6602 142.895 60.8086C143.777 61.957 144.219 63.5625 144.219 65.625V65.7891ZM141.371 65.543C141.371 64.168 141.129 63.1367 140.645 62.4492C140.16 61.7617 139.457 61.418 138.535 61.418C137.301 61.418 136.434 61.957 135.934 63.0352V68.2617C136.441 69.3633 137.316 69.9141 138.559 69.9141C139.449 69.9141 140.137 69.582 140.621 68.918C141.105 68.2539 141.355 67.25 141.371 65.9062V65.543ZM152.867 72V54.9375H157.906C159.414 54.9375 160.75 55.2734 161.914 55.9453C163.086 56.6172 163.992 57.5703 164.633 58.8047C165.273 60.0391 165.594 61.4531 165.594 63.0469V63.9023C165.594 65.5195 165.27 66.9414 164.621 68.168C163.98 69.3945 163.062 70.3398 161.867 71.0039C160.68 71.668 159.316 72 157.777 72H152.867ZM155.832 57.3281V69.6328H157.766C159.32 69.6328 160.512 69.1484 161.34 68.1797C162.176 67.2031 162.602 65.8047 162.617 63.9844V63.0352C162.617 61.1836 162.215 59.7695 161.41 58.793C160.605 57.8164 159.438 57.3281 157.906 57.3281H155.832ZM173.855 72.2344C172.051 72.2344 170.586 71.668 169.461 70.5352C168.344 69.3945 167.785 67.8789 167.785 65.9883V65.6367C167.785 64.3711 168.027 63.2422 168.512 62.25C169.004 61.25 169.691 60.4727 170.574 59.918C171.457 59.3633 172.441 59.0859 173.527 59.0859C175.254 59.0859 176.586 59.6367 177.523 60.7383C178.469 61.8398 178.941 63.3984 178.941 65.4141V66.5625H170.656C170.742 67.6094 171.09 68.4375 171.699 69.0469C172.316 69.6562 173.09 69.9609 174.02 69.9609C175.324 69.9609 176.387 69.4336 177.207 68.3789L178.742 69.8438C178.234 70.6016 177.555 71.1914 176.703 71.6133C175.859 72.0273 174.91 72.2344 173.855 72.2344ZM173.516 61.3711C172.734 61.3711 172.102 61.6445 171.617 62.1914C171.141 62.7383 170.836 63.5 170.703 64.4766H176.129V64.2656C176.066 63.3125 175.812 62.5938 175.367 62.1094C174.922 61.6172 174.305 61.3711 173.516 61.3711ZM185.469 68.3906L188.152 59.3203H191.094L186.699 72H184.227L179.797 59.3203H182.75L185.469 68.3906ZM198.301 72.2344C196.496 72.2344 195.031 71.668 193.906 70.5352C192.789 69.3945 192.23 67.8789 192.23 65.9883V65.6367C192.23 64.3711 192.473 63.2422 192.957 62.25C193.449 61.25 194.137 60.4727 195.02 59.918C195.902 59.3633 196.887 59.0859 197.973 59.0859C199.699 59.0859 201.031 59.6367 201.969 60.7383C202.914 61.8398 203.387 63.3984 203.387 65.4141V66.5625H195.102C195.188 67.6094 195.535 68.4375 196.145 69.0469C196.762 69.6562 197.535 69.9609 198.465 69.9609C199.77 69.9609 200.832 69.4336 201.652 68.3789L203.188 69.8438C202.68 70.6016 202 71.1914 201.148 71.6133C200.305 72.0273 199.355 72.2344 198.301 72.2344ZM197.961 61.3711C197.18 61.3711 196.547 61.6445 196.062 62.1914C195.586 62.7383 195.281 63.5 195.148 64.4766H200.574V64.2656C200.512 63.3125 200.258 62.5938 199.812 62.1094C199.367 61.6172 198.75 61.3711 197.961 61.3711ZM208.637 72H205.789V54H208.637V72ZM211.215 65.543C211.215 64.3008 211.461 63.1836 211.953 62.1914C212.445 61.1914 213.137 60.4258 214.027 59.8945C214.918 59.3555 215.941 59.0859 217.098 59.0859C218.809 59.0859 220.195 59.6367 221.258 60.7383C222.328 61.8398 222.906 63.3008 222.992 65.1211L223.004 65.7891C223.004 67.0391 222.762 68.1562 222.277 69.1406C221.801 70.125 221.113 70.8867 220.215 71.4258C219.324 71.9648 218.293 72.2344 217.121 72.2344C215.332 72.2344 213.898 71.6406 212.82 70.4531C211.75 69.2578 211.215 67.668 211.215 65.6836V65.543ZM214.062 65.7891C214.062 67.0938 214.332 68.1172 214.871 68.8594C215.41 69.5938 216.16 69.9609 217.121 69.9609C218.082 69.9609 218.828 69.5859 219.359 68.8359C219.898 68.0859 220.168 66.9883 220.168 65.543C220.168 64.2617 219.891 63.2461 219.336 62.4961C218.789 61.7461 218.043 61.3711 217.098 61.3711C216.168 61.3711 215.43 61.7422 214.883 62.4844C214.336 63.2188 214.062 64.3203 214.062 65.7891ZM236.516 65.7891C236.516 67.75 236.07 69.3164 235.18 70.4883C234.289 71.6523 233.094 72.2344 231.594 72.2344C230.203 72.2344 229.09 71.7773 228.254 70.8633V76.875H225.406V59.3203H228.031L228.148 60.6094C228.984 59.5938 230.121 59.0859 231.559 59.0859C233.105 59.0859 234.316 59.6641 235.191 60.8203C236.074 61.9688 236.516 63.5664 236.516 65.6133V65.7891ZM233.68 65.543C233.68 64.2773 233.426 63.2734 232.918 62.5312C232.418 61.7891 231.699 61.418 230.762 61.418C229.598 61.418 228.762 61.8984 228.254 62.8594V68.4844C228.77 69.4688 229.613 69.9609 230.785 69.9609C231.691 69.9609 232.398 69.5977 232.906 68.8711C233.422 68.1367 233.68 67.0273 233.68 65.543ZM244.52 72.2344C242.715 72.2344 241.25 71.668 240.125 70.5352C239.008 69.3945 238.449 67.8789 238.449 65.9883V65.6367C238.449 64.3711 238.691 63.2422 239.176 62.25C239.668 61.25 240.355 60.4727 241.238 59.918C242.121 59.3633 243.105 59.0859 244.191 59.0859C245.918 59.0859 247.25 59.6367 248.188 60.7383C249.133 61.8398 249.605 63.3984 249.605 65.4141V66.5625H241.32C241.406 67.6094 241.754 68.4375 242.363 69.0469C242.98 69.6562 243.754 69.9609 244.684 69.9609C245.988 69.9609 247.051 69.4336 247.871 68.3789L249.406 69.8438C248.898 70.6016 248.219 71.1914 247.367 71.6133C246.523 72.0273 245.574 72.2344 244.52 72.2344ZM244.18 61.3711C243.398 61.3711 242.766 61.6445 242.281 62.1914C241.805 62.7383 241.5 63.5 241.367 64.4766H246.793V64.2656C246.73 63.3125 246.477 62.5938 246.031 62.1094C245.586 61.6172 244.969 61.3711 244.18 61.3711ZM258.465 61.9219C258.09 61.8594 257.703 61.8281 257.305 61.8281C256 61.8281 255.121 62.3281 254.668 63.3281V72H251.82V59.3203H254.539L254.609 60.7383C255.297 59.6367 256.25 59.0859 257.469 59.0859C257.875 59.0859 258.211 59.1406 258.477 59.25L258.465 61.9219Z" fill="#52616D"/>
<rect opacity="0.5" x="76" y="10" width="2" height="62" rx="1" fill="#52616D"/>
</svg>
