<svg width="36" height="27" viewBox="0 0 36 27" fill="none" xmlns="http://www.w3.org/2000/svg">
<path d="M15.985 26.9736L12.6763 26.0402C12.3292 25.9453 12.1339 25.592 12.2315 25.2545L19.6354 0.458782C19.7331 0.121282 20.0965 -0.0685619 20.4436 0.02636L23.7523 0.959759C24.0995 1.05468 24.2948 1.408 24.1971 1.7455L16.7932 26.5412C16.6902 26.8787 16.3322 27.0738 15.985 26.9736V26.9736ZM9.80154 21.0568L12.161 18.61C12.4105 18.3516 12.3943 17.9402 12.1176 17.7029L7.20339 13.5L12.1176 9.29707C12.3943 9.05976 12.416 8.64843 12.161 8.39003L9.80154 5.94316C9.55746 5.69003 9.14522 5.67421 8.87944 5.91679L1.06331 13.0359C0.786678 13.2838 0.786678 13.7109 1.06331 13.9588L8.87944 21.0832C9.14522 21.3258 9.55746 21.3152 9.80154 21.0568V21.0568ZM27.5492 21.0885L35.3654 13.9641C35.642 13.7162 35.642 13.2891 35.3654 13.0412L27.5492 5.91152C27.2889 5.67421 26.8766 5.68476 26.6271 5.93788L24.2676 8.38476C24.0181 8.64316 24.0344 9.05449 24.311 9.29179L29.2253 13.5L24.311 17.7029C24.0344 17.9402 24.0127 18.3516 24.2676 18.61L26.6271 21.0568C26.8712 21.3152 27.2834 21.3258 27.5492 21.0885V21.0885Z" fill="#F4F4F5"/>
</svg>
