<svg width="78" height="24" viewBox="0 0 78 24" fill="none" xmlns="http://www.w3.org/2000/svg">
<path fill-rule="evenodd" clip-rule="evenodd" d="M0 22.4178C4.86503 25.2267 11.0859 23.5598 13.8947 18.6948C16.7036 13.8297 15.0367 7.60884 10.1717 4.80002L7.62874 9.20447C10.0613 10.6089 10.8947 13.7193 9.49028 16.1518C8.08587 18.5844 4.97543 19.4178 2.54291 18.0134L0 22.4178Z" fill="#277AC7"/>
<path fill-rule="evenodd" clip-rule="evenodd" d="M39.4295 22.4178C44.2945 25.2267 50.5154 23.5598 53.3243 18.6948C56.1331 13.8297 54.4662 7.60884 49.6012 4.80002L47.0583 9.20447C49.4908 10.6089 50.3242 13.7193 48.9198 16.1518C47.5154 18.5844 44.4049 19.4178 41.9724 18.0134L39.4295 22.4178Z" fill="#277AC7"/>
<path d="M17.6591 9.6H22.4591V24H17.6591V9.6Z" fill="#277AC7"/>
<path d="M22.4591 9.6V4.8L29.6591 4.80001V9.60001L22.4591 9.6Z" fill="#277AC7"/>
<path d="M36.8591 24H32.0592L32.0592 0L36.8592 4.19629e-07L36.8591 24Z" fill="#277AC7"/>
<path d="M69.2591 24H64.4591L57.2591 4.80001H62.0591L69.2591 24Z" fill="#277AC7"/>
<path d="M69.2591 15.6H74.0591L77.6591 4.80001H72.8591L69.2591 15.6Z" fill="#277AC7"/>
</svg>
