<svg width="130" height="41" viewBox="0 0 130 41" fill="none" xmlns="http://www.w3.org/2000/svg">
<path fill-rule="evenodd" clip-rule="evenodd" d="M0 37.5271C8.14397 42.229 18.5576 39.4387 23.2595 31.2947C27.9615 23.1507 25.1711 12.7371 17.0272 8.03514L12.7704 15.4081C16.8424 17.7591 18.2375 22.9659 15.8866 27.0379C13.5356 31.1099 8.32877 32.505 4.25679 30.1541L0 37.5271Z" fill="#F4F4F5"/>
<path fill-rule="evenodd" clip-rule="evenodd" d="M66.0043 37.5271C74.1483 42.229 84.5619 39.4387 89.2639 31.2947C93.9658 23.1507 91.1754 12.7371 83.0315 8.03514L78.7747 15.4081C82.8467 17.7591 84.2418 22.9659 81.8909 27.0379C79.5399 31.1099 74.3331 32.505 70.2611 30.1541L66.0043 37.5271Z" fill="#F4F4F5"/>
<path d="M29.5611 16.0702H37.5962V40.1756H29.5611V16.0702Z" fill="#F4F4F5"/>
<path d="M37.5962 16.0702V8.03512L49.6489 8.03512V16.0702L37.5962 16.0702Z" fill="#F4F4F5"/>
<path d="M61.7016 40.1756H53.6664L53.6665 0L61.7016 7.02452e-07L61.7016 40.1756Z" fill="#F4F4F5"/>
<path d="M115.939 40.1756H107.903L95.8508 8.03512L103.886 8.03512L115.939 40.1756Z" fill="#F4F4F5"/>
<path d="M115.939 26.1141H123.974L130 8.03512L121.965 8.03512L115.939 26.1141Z" fill="#F4F4F5"/>
</svg>
