<?xml version="1.0" standalone="no"?>
<!DOCTYPE svg PUBLIC "-//W3C//DTD SVG 20010904//EN"
 "http://www.w3.org/TR/2001/REC-SVG-20010904/DTD/svg10.dtd">
<svg version="1.0" xmlns="http://www.w3.org/2000/svg"
 width="512.000000pt" height="512.000000pt" viewBox="0 0 512.000000 512.000000"
 preserveAspectRatio="xMidYMid meet">
<metadata>
Created by potrace 1.14, written by Peter Selinger 2001-2017
</metadata>
<g transform="translate(0.000000,512.000000) scale(0.100000,-0.100000)"
fill="#000000" stroke="none">
<path d="M2345 5053 c-540 -64 -958 -234 -1350 -549 -111 -89 -319 -301 -407
-414 -258 -334 -422 -703 -495 -1120 -34 -196 -43 -511 -19 -714 100 -860 621
-1595 1401 -1977 453 -221 925 -298 1435 -233 374 48 749 189 1070 405 565
377 969 998 1079 1659 73 440 34 896 -113 1295 -85 231 -240 507 -396 707 -83
105 -280 304 -390 392 -371 297 -822 487 -1286 541 -115 13 -443 19 -529 8z
m1376 -864 c537 -369 859 -950 886 -1599 43 -1051 -732 -1959 -1787 -2089
-122 -16 -371 -13 -503 4 -208 27 -443 98 -620 187 -88 43 -108 70 -90 118 6
15 108 197 227 403 180 311 222 377 246 387 26 11 39 8 117 -22 149 -60 220
-73 383 -73 223 0 380 45 557 160 212 139 363 350 430 603 21 82 26 119 26
237 0 155 -12 227 -63 367 -55 151 -171 314 -294 415 -96 77 -116 99 -116 128
0 29 429 780 462 808 32 27 59 21 139 -34z"/>
</g>
</svg>
