<svg width="52" height="53" viewBox="0 0 52 53" fill="none" xmlns="http://www.w3.org/2000/svg">
<path fill-rule="evenodd" clip-rule="evenodd" d="M0.302979 26.4812C0.302979 12.2887 11.8075 0.78418 26 0.78418C40.1924 0.78418 51.697 12.2887 51.697 26.4812C51.697 40.6736 40.1924 52.1782 26 52.1782C11.8075 52.1782 0.302979 40.6736 0.302979 26.4812ZM18.2909 23.9115C18.9724 23.9115 19.626 23.6407 20.1079 23.1588C20.5898 22.6769 20.8606 22.0233 20.8606 21.3418C20.8606 20.6602 20.5898 20.0066 20.1079 19.5247C19.626 19.0428 18.9724 18.7721 18.2909 18.7721C17.6093 18.7721 16.9557 19.0428 16.4738 19.5247C15.9919 20.0066 15.7212 20.6602 15.7212 21.3418C15.7212 22.0233 15.9919 22.6769 16.4738 23.1588C16.9557 23.6407 17.6093 23.9115 18.2909 23.9115ZM20.2361 29.3078C19.7908 28.7919 19.1587 28.4741 18.4789 28.4242C17.7992 28.3743 17.1275 28.5965 16.6116 29.0419C16.0957 29.4873 15.7778 30.1193 15.7279 30.7991C15.678 31.4788 15.9002 32.1505 16.3456 32.6664C18.4271 35.0742 21.5878 36.76 26 36.76C30.4096 36.76 33.5729 35.0742 35.6543 32.6664C36.0997 32.1505 36.3219 31.4788 36.272 30.7991C36.2221 30.1193 35.9043 29.4873 35.3884 29.0419C34.8725 28.5965 34.2007 28.3743 33.521 28.4242C32.8413 28.4741 32.2092 28.7919 31.7638 29.3078C30.6871 30.5541 28.9603 31.6206 26 31.6206C23.0397 31.6206 21.3128 30.5541 20.2361 29.3078ZM36.2788 21.3418C36.2788 22.0233 36.008 22.6769 35.5261 23.1588C35.0442 23.6407 34.3906 23.9115 33.7091 23.9115C33.0275 23.9115 32.3739 23.6407 31.892 23.1588C31.4101 22.6769 31.1394 22.0233 31.1394 21.3418C31.1394 20.6602 31.4101 20.0066 31.892 19.5247C32.3739 19.0428 33.0275 18.7721 33.7091 18.7721C34.3906 18.7721 35.0442 19.0428 35.5261 19.5247C36.008 20.0066 36.2788 20.6602 36.2788 21.3418Z" fill="#F4F4F5"/>
</svg>
