<svg xmlns="http://www.w3.org/2000/svg" width="16" height="16" viewBox="0 0 16 16" fill="#364048"><style>*{fill:#364048;}@media(prefers-color-scheme:dark){*{fill:#fff;}}</style><path d="M1 1.367v5.3c0 .03.015.06.015.075l5.663 9.18c.03.045.075.075.136.075h3.262c.12 0 .196-.136.136-.226l-8.9-14.467c-.106-.15-.302-.1-.302.06zm4.4 2.235c.045.076.136.1.2.045 2.1-1.193 4.787-.53 6.056 1.54a4.49 4.49 0 0 1-1.344 6.101c-.076.045-.1.136-.045.2l1.435 2.326c.045.075.136.1.2.045 3.428-2.205 4.485-6.826 2.34-10.314-2.16-3.458-6.765-4.6-10.27-2.522-.076.045-.1.136-.045.2L5.4 3.602zm-2.316 9.65l-1.933.015c-.1 0-.15-.06-.15-.15V10.37c0-.1.076-.15.15-.15h.453c.06 0 .106.03.136.075l.106.18 1.4 2.552c.045.106-.03.226-.15.226z"/></svg>
