<svg width="2248" height="376" viewBox="0 0 2248 376" fill="none" xmlns="http://www.w3.org/2000/svg">
<path fill-rule="evenodd" clip-rule="evenodd" d="M53.7146 39.2595C67.8024 6.84204 105.464 -7.90287 138.396 4.93748C438.598 121.99 792.986 162.271 1105.18 97.0262L1111.76 95.2271C1466.91 -1.9879 1840.06 -11.3329 2199.08 67.5568C2233.6 75.1427 2254.46 109.973 2245.9 144.269L2217.1 259.73C2208.54 294.026 2173.82 314.788 2139.28 307.32C1821.38 238.611 1491.27 247.431 1176.97 333.463L1163.3 337.204L1159.74 337.957C796.292 414.737 387.833 369.226 39.878 231.611C7.00901 218.612 -7.80228 180.817 6.28547 148.399L53.7146 39.2595Z" fill="#277AC7"/>
</svg>
