<svg width="747" height="220" viewBox="0 0 747 220" fill="none" xmlns="http://www.w3.org/2000/svg">
<g opacity="0.03" clip-path="url(#clip0_742_1883)">
<path d="M32.4692 -41.0604C30.5493 -41.5748 28.5037 -41.3055 26.7824 -40.3117C25.0611 -39.3179 23.8051 -37.681 23.2907 -35.7612L11.6529 7.67187C11.1384 9.59173 11.4077 11.6373 12.4015 13.3586C13.3953 15.0799 15.0322 16.3359 16.9521 16.8503L45.9074 24.6089C47.8273 25.1233 49.8729 24.854 51.5942 23.8602C53.3155 22.8664 54.5715 21.2296 55.0859 19.3097L63.4128 -11.7666C63.7972 -13.2064 63.5941 -14.7398 62.8482 -16.0299L52.4787 -33.9958C51.7334 -35.2857 50.5067 -36.2269 49.0678 -36.6128L32.4692 -41.0604ZM26.9101 -34.7913C27.1673 -35.7513 27.7953 -36.5697 28.656 -37.0666C29.5166 -37.5635 30.5394 -37.6982 31.4994 -37.4409L45.977 -33.5617L42.5827 -20.8937C42.1969 -19.4538 42.3988 -17.9196 43.1442 -16.6286C43.8895 -15.3377 45.1172 -14.3956 46.5571 -14.0098L59.225 -10.6155L51.4665 18.3399C51.2093 19.2998 50.5813 20.1183 49.7206 20.6152C48.86 21.1121 47.8372 21.2467 46.8772 20.9895L17.9219 13.2309C16.962 12.9737 16.1435 12.3457 15.6466 11.4851C15.1497 10.6244 15.0151 9.60162 15.2723 8.64169L26.9101 -34.7913ZM59.4456 -14.4356L47.5269 -17.6292C47.0469 -17.7579 46.6377 -18.0719 46.3893 -18.5022C46.1408 -18.9325 46.0735 -19.4439 46.2021 -19.9239L49.3957 -31.8426L59.4456 -14.4356Z" fill="#5A6D7F"/>
<path d="M111.276 -41.0604C109.356 -41.5748 107.311 -41.3055 105.589 -40.3117C103.868 -39.3179 102.612 -37.681 102.097 -35.7612L90.4596 7.67187C89.9452 9.59173 90.2145 11.6373 91.2083 13.3586C92.2021 15.0799 93.839 16.3359 95.7588 16.8503L124.714 24.6089C126.634 25.1233 128.68 24.854 130.401 23.8602C132.122 22.8664 133.378 21.2296 133.893 19.3097L142.22 -11.7666C142.604 -13.2064 142.401 -14.7398 141.655 -16.0299L131.285 -33.9958C130.54 -35.2857 129.313 -36.2269 127.875 -36.6128L111.276 -41.0604ZM105.717 -34.7913C105.974 -35.7513 106.602 -36.5697 107.463 -37.0666C108.323 -37.5635 109.346 -37.6982 110.306 -37.4409L124.784 -33.5617L121.389 -20.8937C121.004 -19.4538 121.206 -17.9196 121.951 -16.6286C122.696 -15.3377 123.924 -14.3957 125.364 -14.0098L138.032 -10.6155L130.273 18.3399C130.016 19.2998 129.388 20.1183 128.527 20.6152C127.667 21.1121 126.644 21.2467 125.684 20.9895L96.7286 13.2309C95.7687 12.9737 94.9503 12.3457 94.4534 11.4851C93.9565 10.6244 93.8218 9.60162 94.079 8.64169L105.717 -34.7913ZM138.252 -14.4356L126.334 -17.6293C125.854 -17.7579 125.444 -18.0719 125.196 -18.5022C124.948 -18.9325 124.88 -19.4439 125.009 -19.9239L128.202 -31.8426L138.252 -14.4356Z" fill="#5A6D7F"/>
<path d="M190.083 -41.0604C188.163 -41.5748 186.117 -41.3055 184.396 -40.3117C182.675 -39.3179 181.419 -37.681 180.904 -35.7612L169.266 7.67187C168.752 9.59173 169.021 11.6373 170.015 13.3586C171.009 15.0799 172.646 16.3359 174.566 16.8503L203.521 24.6089C205.441 25.1233 207.486 24.854 209.208 23.8602C210.929 22.8664 212.185 21.2296 212.699 19.3097L221.026 -11.7666C221.411 -13.2064 221.208 -14.7398 220.462 -16.0299L210.092 -33.9958C209.347 -35.2857 208.12 -36.2269 206.681 -36.6128L190.083 -41.0604ZM184.524 -34.7913C184.781 -35.7513 185.409 -36.5697 186.27 -37.0666C187.13 -37.5635 188.153 -37.6982 189.113 -37.4409L203.591 -33.5617L200.196 -20.8937C199.81 -19.4538 200.012 -17.9196 200.758 -16.6286C201.503 -15.3377 202.731 -14.3957 204.171 -14.0098L216.839 -10.6155L209.08 18.3399C208.823 19.2998 208.195 20.1183 207.334 20.6152C206.473 21.1121 205.451 21.2467 204.491 20.9895L175.535 13.2309C174.575 12.9737 173.757 12.3457 173.26 11.4851C172.763 10.6244 172.629 9.60162 172.886 8.64169L184.524 -34.7913ZM217.059 -14.4356L205.14 -17.6293C204.66 -17.7579 204.251 -18.0719 204.003 -18.5022C203.754 -18.9325 203.687 -19.4439 203.816 -19.9239L207.009 -31.8426L217.059 -14.4356Z" fill="#5A6D7F"/>
<path d="M268.889 -41.0604C266.97 -41.5748 264.924 -41.3055 263.203 -40.3117C261.481 -39.3179 260.225 -37.681 259.711 -35.7612L248.073 7.67187C247.559 9.59173 247.828 11.6373 248.822 13.3586C249.816 15.0799 251.452 16.3359 253.372 16.8503L282.328 24.6089C284.248 25.1233 286.293 24.854 288.014 23.8602C289.736 22.8664 290.992 21.2296 291.506 19.3097L299.833 -11.7666C300.217 -13.2064 300.014 -14.7398 299.269 -16.0299L288.899 -33.9958C288.154 -35.2857 286.927 -36.2269 285.488 -36.6128L268.889 -41.0604ZM263.33 -34.7913C263.588 -35.7513 264.216 -36.5697 265.076 -37.0666C265.937 -37.5635 266.96 -37.6982 267.92 -37.4409L282.397 -33.5617L279.003 -20.8937C278.617 -19.4538 278.819 -17.9196 279.564 -16.6286C280.31 -15.3377 281.537 -14.3957 282.977 -14.0098L295.645 -10.6155L287.887 18.3399C287.63 19.2998 287.002 20.1183 286.141 20.6152C285.28 21.1121 284.257 21.2467 283.298 20.9895L254.342 13.2309C253.382 12.9737 252.564 12.3457 252.067 11.4851C251.57 10.6244 251.435 9.60162 251.693 8.64169L263.33 -34.7913ZM295.866 -14.4356L283.947 -17.6293C283.467 -17.7579 283.058 -18.0719 282.81 -18.5022C282.561 -18.9325 282.494 -19.4439 282.622 -19.9239L285.816 -31.8426L295.866 -14.4356Z" fill="#5A6D7F"/>
<path d="M347.696 -41.0604C345.776 -41.5748 343.731 -41.3055 342.009 -40.3117C340.288 -39.3179 339.032 -37.681 338.518 -35.7612L326.88 7.67187C326.365 9.59173 326.635 11.6373 327.629 13.3586C328.622 15.0799 330.259 16.3359 332.179 16.8503L361.134 24.6089C363.054 25.1233 365.1 24.854 366.821 23.8602C368.543 22.8664 369.799 21.2296 370.313 19.3097L378.64 -11.7666C379.024 -13.2064 378.821 -14.7398 378.075 -16.0299L367.706 -33.9958C366.96 -35.2857 365.734 -36.2269 364.295 -36.6128L347.696 -41.0604ZM342.137 -34.7913C342.394 -35.7513 343.022 -36.5697 343.883 -37.0666C344.744 -37.5635 345.766 -37.6982 346.726 -37.4409L361.204 -33.5617L357.81 -20.8937C357.424 -19.4538 357.626 -17.9196 358.371 -16.6286C359.117 -15.3377 360.344 -14.3956 361.784 -14.0098L374.452 -10.6155L366.694 18.3399C366.436 19.2998 365.808 20.1183 364.948 20.6152C364.087 21.1121 363.064 21.2467 362.104 20.9895L333.149 13.2309C332.189 12.9737 331.371 12.3457 330.874 11.4851C330.377 10.6244 330.242 9.60162 330.499 8.64169L342.137 -34.7913ZM374.673 -14.4356L362.754 -17.6292C362.274 -17.7579 361.865 -18.0719 361.616 -18.5022C361.368 -18.9325 361.301 -19.4439 361.429 -19.9239L364.623 -31.8426L374.673 -14.4356Z" fill="#5A6D7F"/>
<path d="M426.503 -41.0604C424.583 -41.5748 422.538 -41.3055 420.816 -40.3117C419.095 -39.3179 417.839 -37.681 417.325 -35.7612L405.687 7.67187C405.172 9.59173 405.442 11.6373 406.435 13.3586C407.429 15.0799 409.066 16.3359 410.986 16.8503L439.941 24.6089C441.861 25.1233 443.907 24.854 445.628 23.8602C447.349 22.8664 448.605 21.2296 449.12 19.3097L457.447 -11.7666C457.831 -13.2064 457.628 -14.7398 456.882 -16.0299L446.512 -33.9958C445.767 -35.2857 444.54 -36.2269 443.102 -36.6128L426.503 -41.0604ZM420.944 -34.7913C421.201 -35.7513 421.829 -36.5697 422.69 -37.0666C423.55 -37.5635 424.573 -37.6982 425.533 -37.4409L440.011 -33.5617L436.616 -20.8937C436.231 -19.4538 436.433 -17.9196 437.178 -16.6286C437.923 -15.3377 439.151 -14.3957 440.591 -14.0098L453.259 -10.6155L445.5 18.3399C445.243 19.2998 444.615 20.1183 443.754 20.6152C442.894 21.1121 441.871 21.2467 440.911 20.9895L411.956 13.2309C410.996 12.9737 410.177 12.3457 409.68 11.4851C409.184 10.6244 409.049 9.60162 409.306 8.64169L420.944 -34.7913ZM453.479 -14.4356L441.561 -17.6293C441.081 -17.7579 440.672 -18.0719 440.423 -18.5022C440.175 -18.9325 440.107 -19.4439 440.236 -19.9239L443.43 -31.8426L453.479 -14.4356Z" fill="#5A6D7F"/>
<path d="M505.31 -41.0604C503.39 -41.5748 501.344 -41.3055 499.623 -40.3117C497.902 -39.3179 496.646 -37.681 496.131 -35.7612L484.493 7.67187C483.979 9.59173 484.248 11.6373 485.242 13.3586C486.236 15.0799 487.873 16.3359 489.793 16.8503L518.748 24.6089C520.668 25.1233 522.713 24.854 524.435 23.8602C526.156 22.8664 527.412 21.2296 527.926 19.3097L536.253 -11.7666C536.638 -13.2064 536.435 -14.7398 535.689 -16.0299L525.319 -33.9958C524.574 -35.2857 523.347 -36.2269 521.908 -36.6128L505.31 -41.0604ZM499.751 -34.7913C500.008 -35.7513 500.636 -36.5697 501.497 -37.0666C502.357 -37.5635 503.38 -37.6982 504.34 -37.4409L518.818 -33.5617L515.423 -20.8937C515.037 -19.4538 515.239 -17.9196 515.985 -16.6286C516.73 -15.3377 517.958 -14.3957 519.398 -14.0098L532.066 -10.6155L524.307 18.3399C524.05 19.2998 523.422 20.1183 522.561 20.6152C521.701 21.1121 520.678 21.2467 519.718 20.9895L490.762 13.2309C489.803 12.9737 488.984 12.3457 488.487 11.4851C487.99 10.6244 487.856 9.60162 488.113 8.64169L499.751 -34.7913ZM532.286 -14.4356L520.367 -17.6293C519.888 -17.7579 519.478 -18.0719 519.23 -18.5022C518.981 -18.9325 518.914 -19.4439 519.043 -19.9239L522.236 -31.8426L532.286 -14.4356Z" fill="#5A6D7F"/>
<path d="M584.116 -41.0604C582.197 -41.5748 580.151 -41.3055 578.43 -40.3117C576.708 -39.3179 575.452 -37.681 574.938 -35.7612L563.3 7.67187C562.786 9.59173 563.055 11.6373 564.049 13.3586C565.043 15.0799 566.679 16.3359 568.599 16.8503L597.555 24.6089C599.475 25.1233 601.52 24.854 603.241 23.8602C604.963 22.8664 606.219 21.2296 606.733 19.3097L615.06 -11.7666C615.444 -13.2064 615.241 -14.7398 614.496 -16.0299L604.126 -33.9958C603.381 -35.2857 602.154 -36.2269 600.715 -36.6128L584.116 -41.0604ZM578.557 -34.7913C578.815 -35.7513 579.443 -36.5697 580.303 -37.0666C581.164 -37.5635 582.187 -37.6982 583.147 -37.4409L597.624 -33.5617L594.23 -20.8937C593.844 -19.4538 594.046 -17.9196 594.791 -16.6286C595.537 -15.3377 596.764 -14.3957 598.204 -14.0098L610.872 -10.6155L603.114 18.3399C602.857 19.2998 602.229 20.1183 601.368 20.6152C600.507 21.1121 599.484 21.2467 598.525 20.9895L569.569 13.2309C568.609 12.9737 567.791 12.3457 567.294 11.4851C566.797 10.6244 566.662 9.60162 566.92 8.64169L578.557 -34.7913ZM611.093 -14.4356L599.174 -17.6293C598.694 -17.7579 598.285 -18.0719 598.037 -18.5022C597.788 -18.9325 597.721 -19.4439 597.849 -19.9239L601.043 -31.8426L611.093 -14.4356Z" fill="#5A6D7F"/>
<path d="M662.923 -41.0604C661.003 -41.5748 658.958 -41.3055 657.237 -40.3117C655.515 -39.3179 654.259 -37.681 653.745 -35.7612L642.107 7.67187C641.593 9.59173 641.862 11.6373 642.856 13.3586C643.849 15.0799 645.486 16.3359 647.406 16.8504L676.362 24.6089C678.281 25.1234 680.327 24.854 682.048 23.8603C683.77 22.8665 685.026 21.2296 685.54 19.3097L693.867 -11.7666C694.251 -13.2063 694.048 -14.7398 693.302 -16.0299L682.933 -33.9958C682.188 -35.2857 680.961 -36.2269 679.522 -36.6128L662.923 -41.0604ZM657.364 -34.7913C657.621 -35.7513 658.249 -36.5697 659.11 -37.0666C659.971 -37.5635 660.994 -37.6981 661.953 -37.4409L676.431 -33.5616L673.037 -20.8937C672.651 -19.4538 672.853 -17.9196 673.598 -16.6286C674.344 -15.3377 675.571 -14.3956 677.011 -14.0098L689.679 -10.6154L681.921 18.3399C681.663 19.2998 681.035 20.1183 680.175 20.6152C679.314 21.1121 678.291 21.2467 677.331 20.9895L648.376 13.2309C647.416 12.9737 646.598 12.3457 646.101 11.4851C645.604 10.6244 645.469 9.60163 645.726 8.6417L657.364 -34.7913ZM689.9 -14.4356L677.981 -17.6292C677.501 -17.7578 677.092 -18.0718 676.843 -18.5022C676.595 -18.9325 676.528 -19.4439 676.656 -19.9239L679.85 -31.8426L689.9 -14.4356Z" fill="#5A6D7F"/>
<path d="M741.73 -41.0604C739.81 -41.5748 737.765 -41.3055 736.043 -40.3117C734.322 -39.3179 733.066 -37.681 732.552 -35.7612L720.914 7.67187C720.399 9.59173 720.669 11.6373 721.662 13.3586C722.656 15.0799 724.293 16.3359 726.213 16.8504L755.168 24.6089C757.088 25.1234 759.134 24.854 760.855 23.8603C762.576 22.8665 763.832 21.2296 764.347 19.3097L772.674 -11.7666C773.058 -13.2063 772.855 -14.7398 772.109 -16.0299L761.74 -33.9958C760.994 -35.2857 759.768 -36.2269 758.329 -36.6128L741.73 -41.0604ZM736.171 -34.7913C736.428 -35.7513 737.056 -36.5697 737.917 -37.0666C738.778 -37.5635 739.8 -37.6981 740.76 -37.4409L755.238 -33.5616L751.844 -20.8937C751.458 -19.4538 751.66 -17.9196 752.405 -16.6286C753.15 -15.3377 754.378 -14.3956 755.818 -14.0098L768.486 -10.6154L760.727 18.3399C760.47 19.2998 759.842 20.1183 758.981 20.6152C758.121 21.1121 757.098 21.2467 756.138 20.9895L727.183 13.2309C726.223 12.9737 725.404 12.3457 724.908 11.4851C724.411 10.6244 724.276 9.60163 724.533 8.6417L736.171 -34.7913ZM768.707 -14.4356L756.788 -17.6292C756.308 -17.7578 755.899 -18.0718 755.65 -18.5022C755.402 -18.9325 755.334 -19.4439 755.463 -19.9239L758.657 -31.8426L768.707 -14.4356Z" fill="#5A6D7F"/>
<path d="M-7.24407 37.0744C-9.16393 36.56 -11.2095 36.8293 -12.9308 37.8231C-14.6521 38.8169 -15.9081 40.4537 -16.4226 42.3736L-28.0604 85.8066C-28.5748 87.7265 -28.3055 89.7721 -27.3117 91.4934C-26.3179 93.2147 -24.6811 94.4707 -22.7612 94.9851L6.19415 102.744C8.11401 103.258 10.1596 102.989 11.8809 101.995C13.6022 101.001 14.8582 99.3643 15.3726 97.4445L23.6995 66.3681C24.0839 64.9284 23.8809 63.3949 23.135 62.1048L12.7654 44.1389C12.0202 42.8491 10.7934 41.9079 9.35459 41.522L-7.24407 37.0744ZM-12.8031 43.3434C-12.5459 42.3835 -11.9179 41.5651 -11.0573 41.0682C-10.1966 40.5713 -9.17382 40.4366 -8.21389 40.6938L6.26379 44.5731L2.86941 57.2411C2.48359 58.681 2.68557 60.2152 3.43092 61.5061C4.17626 62.7971 5.40392 63.7391 6.84381 64.1249L19.5118 67.5193L11.7532 96.4747C11.496 97.4346 10.868 98.253 10.0073 98.7499C9.14669 99.2468 8.1239 99.3815 7.16398 99.1243L-21.7914 91.3657C-22.7513 91.1085 -23.5697 90.4805 -24.0666 89.6198C-24.5635 88.7592 -24.6982 87.7364 -24.441 86.7765L-12.8031 43.3434ZM19.7324 63.6991L7.81363 60.5055C7.33367 60.3769 6.92445 60.0629 6.676 59.6326C6.42755 59.2023 6.36023 58.6909 6.48883 58.2109L9.68245 46.2921L19.7324 63.6991Z" fill="#5A6D7F"/>
<path d="M71.5627 37.0744C69.6428 36.56 67.5973 36.8293 65.876 37.8231C64.1547 38.8169 62.8986 40.4537 62.3842 42.3736L50.7464 85.8066C50.2319 87.7265 50.5013 89.7721 51.495 91.4934C52.4888 93.2147 54.1257 94.4707 56.0456 94.9851L85.0009 102.744C86.9208 103.258 88.9664 102.989 90.6877 101.995C92.409 101.001 93.665 99.3643 94.1794 97.4445L102.506 66.3681C102.891 64.9284 102.688 63.3949 101.942 62.1048L91.5722 44.1389C90.8269 42.8491 89.6002 41.9079 88.1613 41.522L71.5627 37.0744ZM66.0036 43.3434C66.2608 42.3835 66.8889 41.5651 67.7495 41.0682C68.6102 40.5713 69.6329 40.4366 70.5929 40.6938L85.0705 44.5731L81.6762 57.2411C81.2904 58.681 81.4923 60.2152 82.2377 61.5061C82.983 62.7971 84.2107 63.7391 85.6506 64.1249L98.3185 67.5193L90.56 96.4747C90.3028 97.4346 89.6748 98.253 88.8141 98.7499C87.9535 99.2468 86.9307 99.3815 85.9707 99.1243L57.0154 91.3657C56.0555 91.1085 55.237 90.4805 54.7401 89.6198C54.2432 88.7592 54.1086 87.7364 54.3658 86.7765L66.0036 43.3434ZM98.5391 63.6991L86.6204 60.5055C86.1404 60.3769 85.7312 60.0629 85.4828 59.6326C85.2343 59.2023 85.167 58.6909 85.2956 58.2109L88.4892 46.2921L98.5391 63.6991Z" fill="#5A6D7F"/>
<path d="M150.369 37.0744C148.45 36.56 146.404 36.8293 144.683 37.8231C142.961 38.8169 141.705 40.4537 141.191 42.3736L129.553 85.8066C129.039 87.7265 129.308 89.7721 130.302 91.4934C131.296 93.2147 132.932 94.4707 134.852 94.9851L163.808 102.744C165.728 103.258 167.773 102.989 169.494 101.995C171.216 101.001 172.472 99.3643 172.986 97.4445L181.313 66.3681C181.697 64.9284 181.494 63.3949 180.749 62.1048L170.379 44.1389C169.634 42.8491 168.407 41.9079 166.968 41.522L150.369 37.0744ZM144.81 43.3434C145.068 42.3835 145.696 41.5651 146.556 41.0682C147.417 40.5713 148.44 40.4366 149.4 40.6938L163.877 44.5731L160.483 57.2411C160.097 58.681 160.299 60.2152 161.044 61.5061C161.79 62.7971 163.017 63.7391 164.457 64.1249L177.125 67.5193L169.367 96.4747C169.11 97.4346 168.482 98.253 167.621 98.7499C166.76 99.2468 165.737 99.3815 164.778 99.1243L135.822 91.3657C134.862 91.1085 134.044 90.4805 133.547 89.6198C133.05 88.7592 132.915 87.7364 133.173 86.7765L144.81 43.3434ZM177.346 63.6991L165.427 60.5055C164.947 60.3769 164.538 60.0629 164.29 59.6326C164.041 59.2023 163.974 58.6909 164.102 58.2109L167.296 46.2921L177.346 63.6991Z" fill="#5A6D7F"/>
<path d="M229.176 37.0744C227.256 36.56 225.211 36.8293 223.489 37.8231C221.768 38.8169 220.512 40.4537 219.998 42.3736L208.36 85.8066C207.845 87.7265 208.115 89.7721 209.109 91.4934C210.102 93.2147 211.739 94.4707 213.659 94.9851L242.614 102.744C244.534 103.258 246.58 102.989 248.301 101.995C250.022 101.001 251.278 99.3643 251.793 97.4445L260.12 66.3681C260.504 64.9284 260.301 63.3949 259.555 62.1048L249.186 44.1389C248.44 42.8491 247.214 41.9079 245.775 41.522L229.176 37.0744ZM223.617 43.3434C223.874 42.3835 224.502 41.5651 225.363 41.0682C226.224 40.5713 227.246 40.4366 228.206 40.6938L242.684 44.5731L239.29 57.2411C238.904 58.681 239.106 60.2152 239.851 61.5061C240.597 62.7971 241.824 63.7391 243.264 64.1249L255.932 67.5193L248.174 96.4747C247.916 97.4346 247.288 98.253 246.428 98.7499C245.567 99.2468 244.544 99.3815 243.584 99.1243L214.629 91.3657C213.669 91.1085 212.851 90.4805 212.354 89.6198C211.857 88.7592 211.722 87.7364 211.979 86.7765L223.617 43.3434ZM256.153 63.6991L244.234 60.5055C243.754 60.3769 243.345 60.0629 243.096 59.6326C242.848 59.2023 242.781 58.6909 242.909 58.2109L246.103 46.2921L256.153 63.6991Z" fill="#5A6D7F"/>
<path d="M307.983 37.0744C306.063 36.56 304.018 36.8293 302.296 37.8231C300.575 38.8169 299.319 40.4537 298.804 42.3736L287.167 85.8066C286.652 87.7265 286.922 89.7721 287.915 91.4934C288.909 93.2147 290.546 94.4707 292.466 94.9851L321.421 102.744C323.341 103.258 325.387 102.989 327.108 101.995C328.829 101.001 330.085 99.3643 330.6 97.4445L338.927 66.3681C339.311 64.9284 339.108 63.3949 338.362 62.1048L327.992 44.1389C327.247 42.8491 326.02 41.9079 324.582 41.522L307.983 37.0744ZM302.424 43.3434C302.681 42.3835 303.309 41.5651 304.17 41.0682C305.03 40.5713 306.053 40.4366 307.013 40.6938L321.491 44.5731L318.096 57.2411C317.711 58.681 317.913 60.2152 318.658 61.5061C319.403 62.7971 320.631 63.7391 322.071 64.1249L334.739 67.5193L326.98 96.4747C326.723 97.4346 326.095 98.253 325.234 98.7499C324.374 99.2468 323.351 99.3815 322.391 99.1243L293.436 91.3657C292.476 91.1085 291.657 90.4805 291.16 89.6198C290.664 88.7592 290.529 87.7364 290.786 86.7765L302.424 43.3434ZM334.959 63.6991L323.041 60.5055C322.561 60.3769 322.151 60.0629 321.903 59.6326C321.655 59.2023 321.587 58.6909 321.716 58.2109L324.91 46.2921L334.959 63.6991Z" fill="#5A6D7F"/>
<path d="M386.79 37.0744C384.87 36.56 382.824 36.8293 381.103 37.8231C379.382 38.8169 378.126 40.4537 377.611 42.3736L365.973 85.8066C365.459 87.7265 365.728 89.7721 366.722 91.4934C367.716 93.2147 369.353 94.4707 371.273 94.9851L400.228 102.744C402.148 103.258 404.193 102.989 405.915 101.995C407.636 101.001 408.892 99.3643 409.406 97.4445L417.733 66.3681C418.118 64.9284 417.915 63.3949 417.169 62.1048L406.799 44.1389C406.054 42.8491 404.827 41.9079 403.388 41.522L386.79 37.0744ZM381.231 43.3434C381.488 42.3835 382.116 41.5651 382.977 41.0682C383.837 40.5713 384.86 40.4366 385.82 40.6938L400.298 44.5731L396.903 57.2411C396.517 58.681 396.719 60.2152 397.465 61.5061C398.21 62.7971 399.438 63.7391 400.878 64.1249L413.546 67.5193L405.787 96.4747C405.53 97.4346 404.902 98.253 404.041 98.7499C403.181 99.2468 402.158 99.3815 401.198 99.1243L372.242 91.3657C371.283 91.1085 370.464 90.4805 369.967 89.6198C369.47 88.7592 369.336 87.7364 369.593 86.7765L381.231 43.3434ZM413.766 63.6991L401.847 60.5055C401.367 60.3769 400.958 60.0629 400.71 59.6326C400.461 59.2023 400.394 58.6909 400.523 58.2109L403.716 46.2921L413.766 63.6991Z" fill="#5A6D7F"/>
<path d="M465.597 37.0744C463.677 36.56 461.631 36.8293 459.91 37.8231C458.188 38.8169 456.932 40.4537 456.418 42.3736L444.78 85.8066C444.266 87.7265 444.535 89.7721 445.529 91.4934C446.523 93.2147 448.16 94.4707 450.079 94.9851L479.035 102.744C480.955 103.258 483 102.989 484.721 101.995C486.443 101.001 487.699 99.3643 488.213 97.4445L496.54 66.3682C496.925 64.9284 496.721 63.3949 495.976 62.1048L485.606 44.1389C484.861 42.8491 483.634 41.9079 482.195 41.522L465.597 37.0744ZM460.037 43.3434C460.295 42.3835 460.923 41.5651 461.783 41.0682C462.644 40.5713 463.667 40.4366 464.627 40.6938L479.104 44.5731L475.71 57.2411C475.324 58.681 475.526 60.2152 476.271 61.5061C477.017 62.7971 478.244 63.7391 479.684 64.1249L492.352 67.5193L484.594 96.4747C484.337 97.4346 483.709 98.253 482.848 98.7499C481.987 99.2468 480.964 99.3815 480.005 99.1243L451.049 91.3657C450.089 91.1085 449.271 90.4805 448.774 89.6198C448.277 88.7592 448.142 87.7364 448.4 86.7765L460.037 43.3434ZM492.573 63.6991L480.654 60.5055C480.174 60.3769 479.765 60.0629 479.517 59.6326C479.268 59.2023 479.201 58.6909 479.329 58.2109L482.523 46.2922L492.573 63.6991Z" fill="#5A6D7F"/>
<path d="M544.403 37.0744C542.483 36.56 540.438 36.8293 538.717 37.8231C536.995 38.8169 535.739 40.4537 535.225 42.3736L523.587 85.8066C523.073 87.7265 523.342 89.7721 524.336 91.4934C525.329 93.2147 526.966 94.4707 528.886 94.9851L557.841 102.744C559.761 103.258 561.807 102.989 563.528 101.995C565.25 101.001 566.506 99.3643 567.02 97.4445L575.347 66.3681C575.731 64.9284 575.528 63.3949 574.782 62.1048L564.413 44.1389C563.668 42.8491 562.441 41.9079 561.002 41.522L544.403 37.0744ZM538.844 43.3434C539.101 42.3835 539.729 41.5651 540.59 41.0682C541.451 40.5713 542.474 40.4366 543.433 40.6938L557.911 44.5731L554.517 57.2411C554.131 58.681 554.333 60.2151 555.078 61.5061C555.824 62.7971 557.051 63.7391 558.491 64.1249L571.159 67.5193L563.401 96.4746C563.143 97.4346 562.515 98.253 561.655 98.7499C560.794 99.2468 559.771 99.3815 558.811 99.1242L529.856 91.3657C528.896 91.1085 528.078 90.4805 527.581 89.6198C527.084 88.7592 526.949 87.7364 527.206 86.7764L538.844 43.3434ZM571.38 63.6991L559.461 60.5055C558.981 60.3769 558.572 60.0629 558.323 59.6326C558.075 59.2022 558.008 58.6909 558.136 58.2109L561.33 46.2921L571.38 63.6991Z" fill="#5A6D7F"/>
<path d="M623.21 37.0744C621.29 36.56 619.245 36.8293 617.523 37.8231C615.802 38.8169 614.546 40.4537 614.032 42.3736L602.394 85.8066C601.879 87.7265 602.149 89.7721 603.142 91.4934C604.136 93.2147 605.773 94.4707 607.693 94.9851L636.648 102.744C638.568 103.258 640.614 102.989 642.335 101.995C644.056 101.001 645.312 99.3643 645.827 97.4445L654.154 66.3681C654.538 64.9284 654.335 63.3949 653.589 62.1048L643.22 44.1389C642.474 42.8491 641.247 41.9079 639.809 41.522L623.21 37.0744ZM617.651 43.3434C617.908 42.3835 618.536 41.5651 619.397 41.0682C620.257 40.5713 621.28 40.4366 622.24 40.6938L636.718 44.5731L633.324 57.2411C632.938 58.681 633.14 60.2151 633.885 61.5061C634.63 62.7971 635.858 63.7391 637.298 64.1249L649.966 67.5193L642.207 96.4746C641.95 97.4346 641.322 98.253 640.461 98.7499C639.601 99.2468 638.578 99.3815 637.618 99.1242L608.663 91.3657C607.703 91.1085 606.884 90.4805 606.387 89.6198C605.891 88.7592 605.756 87.7364 606.013 86.7764L617.651 43.3434ZM650.186 63.6991L638.268 60.5055C637.788 60.3769 637.379 60.0629 637.13 59.6326C636.882 59.2022 636.814 58.6909 636.943 58.2109L640.137 46.2921L650.186 63.6991Z" fill="#5A6D7F"/>
<path d="M702.017 37.0744C700.097 36.56 698.051 36.8293 696.33 37.8231C694.609 38.8169 693.353 40.4537 692.838 42.3736L681.2 85.8066C680.686 87.7265 680.955 89.7721 681.949 91.4934C682.943 93.2147 684.58 94.4707 686.5 94.9851L715.455 102.744C717.375 103.258 719.42 102.989 721.142 101.995C722.863 101.001 724.119 99.3643 724.633 97.4445L732.96 66.3681C733.345 64.9284 733.142 63.3949 732.396 62.1048L722.026 44.1389C721.281 42.8491 720.054 41.9079 718.615 41.522L702.017 37.0744ZM696.458 43.3434C696.715 42.3835 697.343 41.5651 698.204 41.0682C699.064 40.5713 700.087 40.4366 701.047 40.6938L715.525 44.5731L712.13 57.2411C711.744 58.681 711.946 60.2151 712.692 61.5061C713.437 62.7971 714.665 63.7391 716.105 64.1249L728.773 67.5193L721.014 96.4746C720.757 97.4346 720.129 98.253 719.268 98.7499C718.408 99.2468 717.385 99.3815 716.425 99.1242L687.469 91.3657C686.51 91.1085 685.691 90.4805 685.194 89.6198C684.697 88.7592 684.563 87.7364 684.82 86.7764L696.458 43.3434ZM728.993 63.6991L717.074 60.5055C716.595 60.3769 716.185 60.0629 715.937 59.6326C715.688 59.2022 715.621 58.6909 715.75 58.2109L718.943 46.2921L728.993 63.6991Z" fill="#5A6D7F"/>
<path d="M32.4692 115.209C30.5493 114.695 28.5037 114.964 26.7824 115.958C25.0611 116.952 23.8051 118.589 23.2907 120.508L11.6529 163.941C11.1384 165.861 11.4077 167.907 12.4015 169.628C13.3953 171.349 15.0322 172.605 16.9521 173.12L45.9074 180.878C47.8273 181.393 49.8729 181.124 51.5942 180.13C53.3155 179.136 54.5715 177.499 55.0859 175.579L63.4128 144.503C63.7972 143.063 63.5941 141.53 62.8482 140.24L52.4787 122.274C51.7334 120.984 50.5067 120.043 49.0678 119.657L32.4692 115.209ZM26.9101 121.478C27.1673 120.518 27.7953 119.7 28.656 119.203C29.5166 118.706 30.5394 118.571 31.4994 118.829L45.977 122.708L42.5827 135.376C42.1969 136.816 42.3988 138.35 43.1442 139.641C43.8895 140.932 45.1172 141.874 46.5571 142.26L59.225 145.654L51.4665 174.609C51.2093 175.569 50.5813 176.388 49.7206 176.885C48.86 177.382 47.8372 177.516 46.8772 177.259L17.9219 169.5C16.962 169.243 16.1435 168.615 15.6466 167.755C15.1497 166.894 15.0151 165.871 15.2723 164.911L26.9101 121.478ZM59.4456 141.834L47.5269 138.64C47.0469 138.512 46.6377 138.198 46.3893 137.767C46.1408 137.337 46.0735 136.826 46.2021 136.346L49.3957 124.427L59.4456 141.834Z" fill="#5A6D7F"/>
<path d="M111.276 115.209C109.356 114.695 107.311 114.964 105.589 115.958C103.868 116.952 102.612 118.589 102.097 120.508L90.4596 163.941C89.9452 165.861 90.2145 167.907 91.2083 169.628C92.2021 171.349 93.839 172.605 95.7588 173.12L124.714 180.878C126.634 181.393 128.68 181.124 130.401 180.13C132.122 179.136 133.378 177.499 133.893 175.579L142.22 144.503C142.604 143.063 142.401 141.53 141.655 140.24L131.285 122.274C130.54 120.984 129.313 120.043 127.875 119.657L111.276 115.209ZM105.717 121.478C105.974 120.518 106.602 119.7 107.463 119.203C108.323 118.706 109.346 118.571 110.306 118.829L124.784 122.708L121.389 135.376C121.004 136.816 121.206 138.35 121.951 139.641C122.696 140.932 123.924 141.874 125.364 142.26L138.032 145.654L130.273 174.609C130.016 175.569 129.388 176.388 128.527 176.885C127.667 177.382 126.644 177.516 125.684 177.259L96.7286 169.5C95.7687 169.243 94.9503 168.615 94.4534 167.755C93.9565 166.894 93.8218 165.871 94.079 164.911L105.717 121.478ZM138.252 141.834L126.334 138.64C125.854 138.512 125.444 138.198 125.196 137.767C124.948 137.337 124.88 136.826 125.009 136.346L128.202 124.427L138.252 141.834Z" fill="#5A6D7F"/>
<path d="M190.083 115.209C188.163 114.695 186.117 114.964 184.396 115.958C182.675 116.952 181.419 118.589 180.904 120.508L169.266 163.941C168.752 165.861 169.021 167.907 170.015 169.628C171.009 171.349 172.646 172.605 174.566 173.12L203.521 180.878C205.441 181.393 207.486 181.124 209.208 180.13C210.929 179.136 212.185 177.499 212.699 175.579L221.026 144.503C221.411 143.063 221.208 141.53 220.462 140.24L210.092 122.274C209.347 120.984 208.12 120.043 206.681 119.657L190.083 115.209ZM184.524 121.478C184.781 120.518 185.409 119.7 186.27 119.203C187.13 118.706 188.153 118.571 189.113 118.829L203.591 122.708L200.196 135.376C199.81 136.816 200.012 138.35 200.758 139.641C201.503 140.932 202.731 141.874 204.171 142.26L216.839 145.654L209.08 174.609C208.823 175.569 208.195 176.388 207.334 176.885C206.473 177.382 205.451 177.516 204.491 177.259L175.535 169.5C174.575 169.243 173.757 168.615 173.26 167.755C172.763 166.894 172.629 165.871 172.886 164.911L184.524 121.478ZM217.059 141.834L205.14 138.64C204.66 138.512 204.251 138.198 204.003 137.767C203.754 137.337 203.687 136.826 203.816 136.346L207.009 124.427L217.059 141.834Z" fill="#5A6D7F"/>
<path d="M268.889 115.209C266.97 114.695 264.924 114.964 263.203 115.958C261.481 116.952 260.225 118.589 259.711 120.508L248.073 163.941C247.559 165.861 247.828 167.907 248.822 169.628C249.816 171.349 251.452 172.605 253.372 173.12L282.328 180.878C284.248 181.393 286.293 181.124 288.014 180.13C289.736 179.136 290.992 177.499 291.506 175.579L299.833 144.503C300.217 143.063 300.014 141.53 299.269 140.24L288.899 122.274C288.154 120.984 286.927 120.043 285.488 119.657L268.889 115.209ZM263.33 121.478C263.588 120.518 264.216 119.7 265.076 119.203C265.937 118.706 266.96 118.571 267.92 118.829L282.397 122.708L279.003 135.376C278.617 136.816 278.819 138.35 279.564 139.641C280.31 140.932 281.537 141.874 282.977 142.26L295.645 145.654L287.887 174.609C287.63 175.569 287.002 176.388 286.141 176.885C285.28 177.382 284.257 177.516 283.298 177.259L254.342 169.5C253.382 169.243 252.564 168.615 252.067 167.755C251.57 166.894 251.435 165.871 251.693 164.911L263.33 121.478ZM295.866 141.834L283.947 138.64C283.467 138.512 283.058 138.198 282.81 137.767C282.561 137.337 282.494 136.826 282.622 136.346L285.816 124.427L295.866 141.834Z" fill="#5A6D7F"/>
<path d="M347.696 115.209C345.776 114.695 343.731 114.964 342.009 115.958C340.288 116.952 339.032 118.589 338.518 120.508L326.88 163.941C326.365 165.861 326.635 167.907 327.629 169.628C328.622 171.349 330.259 172.605 332.179 173.12L361.134 180.878C363.054 181.393 365.1 181.124 366.821 180.13C368.542 179.136 369.798 177.499 370.313 175.579L378.64 144.503C379.024 143.063 378.821 141.53 378.075 140.24L367.706 122.274C366.96 120.984 365.734 120.043 364.295 119.657L347.696 115.209ZM342.137 121.478C342.394 120.518 343.022 119.7 343.883 119.203C344.744 118.706 345.766 118.571 346.726 118.829L361.204 122.708L357.81 135.376C357.424 136.816 357.626 138.35 358.371 139.641C359.117 140.932 360.344 141.874 361.784 142.26L374.452 145.654L366.693 174.609C366.436 175.569 365.808 176.388 364.948 176.885C364.087 177.382 363.064 177.516 362.104 177.259L333.149 169.5C332.189 169.243 331.371 168.615 330.874 167.755C330.377 166.894 330.242 165.871 330.499 164.911L342.137 121.478ZM374.673 141.834L362.754 138.64C362.274 138.512 361.865 138.198 361.616 137.767C361.368 137.337 361.3 136.826 361.429 136.346L364.623 124.427L374.673 141.834Z" fill="#5A6D7F"/>
<path d="M426.503 115.209C424.583 114.695 422.537 114.964 420.816 115.958C419.095 116.952 417.839 118.589 417.324 120.508L405.687 163.941C405.172 165.861 405.441 167.907 406.435 169.628C407.429 171.349 409.066 172.605 410.986 173.12L439.941 180.878C441.861 181.393 443.907 181.124 445.628 180.13C447.349 179.136 448.605 177.499 449.12 175.579L457.447 144.503C457.831 143.063 457.628 141.53 456.882 140.24L446.512 122.274C445.767 120.984 444.54 120.043 443.102 119.657L426.503 115.209ZM420.944 121.478C421.201 120.518 421.829 119.7 422.69 119.203C423.55 118.706 424.573 118.571 425.533 118.829L440.011 122.708L436.616 135.376C436.231 136.816 436.433 138.35 437.178 139.641C437.923 140.932 439.151 141.874 440.591 142.26L453.259 145.654L445.5 174.609C445.243 175.569 444.615 176.388 443.754 176.885C442.894 177.382 441.871 177.516 440.911 177.259L411.956 169.5C410.996 169.243 410.177 168.615 409.68 167.755C409.183 166.894 409.049 165.871 409.306 164.911L420.944 121.478ZM453.479 141.834L441.561 138.64C441.081 138.512 440.671 138.198 440.423 137.767C440.175 137.337 440.107 136.826 440.236 136.346L443.429 124.427L453.479 141.834Z" fill="#5A6D7F"/>
<path d="M505.31 115.209C503.39 114.695 501.344 114.964 499.623 115.958C497.902 116.952 496.646 118.589 496.131 120.508L484.493 163.941C483.979 165.861 484.248 167.907 485.242 169.628C486.236 171.349 487.873 172.605 489.793 173.12L518.748 180.878C520.668 181.393 522.713 181.124 524.435 180.13C526.156 179.136 527.412 177.499 527.926 175.579L536.253 144.503C536.638 143.063 536.435 141.53 535.689 140.24L525.319 122.274C524.574 120.984 523.347 120.043 521.908 119.657L505.31 115.209ZM499.751 121.478C500.008 120.518 500.636 119.7 501.497 119.203C502.357 118.706 503.38 118.571 504.34 118.829L518.818 122.708L515.423 135.376C515.037 136.816 515.239 138.35 515.985 139.641C516.73 140.932 517.958 141.874 519.398 142.26L532.066 145.654L524.307 174.609C524.05 175.569 523.422 176.388 522.561 176.885C521.7 177.382 520.678 177.516 519.718 177.259L490.762 169.5C489.802 169.243 488.984 168.615 488.487 167.755C487.99 166.894 487.856 165.871 488.113 164.911L499.751 121.478ZM532.286 141.834L520.367 138.64C519.887 138.512 519.478 138.198 519.23 137.767C518.981 137.337 518.914 136.826 519.043 136.346L522.236 124.427L532.286 141.834Z" fill="#5A6D7F"/>
<path d="M584.117 115.209C582.197 114.695 580.151 114.964 578.43 115.958C576.708 116.952 575.452 118.589 574.938 120.508L563.3 163.941C562.786 165.861 563.055 167.907 564.049 169.628C565.043 171.349 566.68 172.605 568.599 173.12L597.555 180.878C599.475 181.393 601.52 181.124 603.242 180.13C604.963 179.136 606.219 177.499 606.733 175.579L615.06 144.503C615.445 143.063 615.241 141.53 614.496 140.24L604.126 122.274C603.381 120.984 602.154 120.043 600.715 119.657L584.117 115.209ZM578.557 121.478C578.815 120.518 579.443 119.7 580.303 119.203C581.164 118.706 582.187 118.571 583.147 118.829L597.624 122.708L594.23 135.376C593.844 136.816 594.046 138.35 594.792 139.641C595.537 140.932 596.765 141.874 598.204 142.26L610.872 145.654L603.114 174.609C602.857 175.569 602.229 176.388 601.368 176.885C600.507 177.382 599.485 177.516 598.525 177.259L569.569 169.5C568.609 169.243 567.791 168.615 567.294 167.755C566.797 166.894 566.662 165.871 566.92 164.911L578.557 121.478ZM611.093 141.834L599.174 138.64C598.694 138.512 598.285 138.198 598.037 137.767C597.788 137.337 597.721 136.826 597.849 136.346L601.043 124.427L611.093 141.834Z" fill="#5A6D7F"/>
<path d="M662.923 115.209C661.003 114.695 658.958 114.964 657.237 115.958C655.515 116.952 654.259 118.589 653.745 120.508L642.107 163.941C641.593 165.861 641.862 167.907 642.856 169.628C643.849 171.349 645.486 172.605 647.406 173.12L676.362 180.878C678.281 181.393 680.327 181.124 682.048 180.13C683.77 179.136 685.026 177.499 685.54 175.579L693.867 144.503C694.251 143.063 694.048 141.53 693.302 140.24L682.933 122.274C682.188 120.984 680.961 120.043 679.522 119.657L662.923 115.209ZM657.364 121.478C657.621 120.518 658.249 119.7 659.11 119.203C659.971 118.706 660.994 118.571 661.953 118.829L676.431 122.708L673.037 135.376C672.651 136.816 672.853 138.35 673.598 139.641C674.344 140.932 675.571 141.874 677.011 142.26L689.679 145.654L681.921 174.609C681.663 175.569 681.035 176.388 680.175 176.885C679.314 177.382 678.291 177.516 677.331 177.259L648.376 169.5C647.416 169.243 646.598 168.615 646.101 167.755C645.604 166.894 645.469 165.871 645.726 164.911L657.364 121.478ZM689.9 141.834L677.981 138.64C677.501 138.512 677.092 138.198 676.843 137.767C676.595 137.337 676.528 136.826 676.656 136.346L679.85 124.427L689.9 141.834Z" fill="#5A6D7F"/>
<path d="M741.73 115.209C739.81 114.695 737.765 114.964 736.043 115.958C734.322 116.952 733.066 118.589 732.552 120.508L720.914 163.941C720.399 165.861 720.669 167.907 721.662 169.628C722.656 171.349 724.293 172.605 726.213 173.12L755.168 180.878C757.088 181.393 759.134 181.124 760.855 180.13C762.576 179.136 763.832 177.499 764.347 175.579L772.674 144.503C773.058 143.063 772.855 141.53 772.109 140.24L761.74 122.274C760.994 120.984 759.768 120.043 758.329 119.657L741.73 115.209ZM736.171 121.478C736.428 120.518 737.056 119.7 737.917 119.203C738.778 118.706 739.8 118.571 740.76 118.829L755.238 122.708L751.844 135.376C751.458 136.816 751.66 138.35 752.405 139.641C753.15 140.932 754.378 141.874 755.818 142.26L768.486 145.654L760.727 174.609C760.47 175.569 759.842 176.388 758.981 176.885C758.121 177.382 757.098 177.516 756.138 177.259L727.183 169.5C726.223 169.243 725.404 168.615 724.907 167.755C724.411 166.894 724.276 165.871 724.533 164.911L736.171 121.478ZM768.707 141.834L756.788 138.64C756.308 138.512 755.899 138.198 755.65 137.767C755.402 137.337 755.334 136.826 755.463 136.346L758.657 124.427L768.707 141.834Z" fill="#5A6D7F"/>
<path d="M-7.24407 195.172C-9.16393 194.658 -11.2095 194.927 -12.9308 195.921C-14.6521 196.915 -15.9081 198.551 -16.4226 200.471L-28.0604 243.904C-28.5748 245.824 -28.3055 247.87 -27.3117 249.591C-26.3179 251.312 -24.6811 252.568 -22.7612 253.083L6.19416 260.841C8.11402 261.356 10.1596 261.086 11.8809 260.093C13.6022 259.099 14.8582 257.462 15.3726 255.542L23.6995 224.466C24.0839 223.026 23.8809 221.493 23.135 220.203L12.7654 202.237C12.0202 200.947 10.7934 200.006 9.35459 199.62L-7.24407 195.172ZM-12.8031 201.441C-12.5459 200.481 -11.9179 199.663 -11.0573 199.166C-10.1966 198.669 -9.17382 198.534 -8.21389 198.791L6.26379 202.671L2.86941 215.339C2.4836 216.779 2.68558 218.313 3.43092 219.604C4.17626 220.895 5.40392 221.837 6.84381 222.223L19.5118 225.617L11.7532 254.572C11.496 255.532 10.868 256.351 10.0073 256.848C9.1467 257.344 8.12391 257.479 7.16398 257.222L-21.7914 249.463C-22.7513 249.206 -23.5697 248.578 -24.0666 247.717C-24.5635 246.857 -24.6982 245.834 -24.441 244.874L-12.8031 201.441ZM19.7324 221.797L7.81363 218.603C7.33367 218.475 6.92445 218.161 6.676 217.73C6.42755 217.3 6.36023 216.789 6.48883 216.309L9.68245 204.39L19.7324 221.797Z" fill="#5A6D7F"/>
<path d="M71.5627 195.172C69.6428 194.658 67.5973 194.927 65.876 195.921C64.1547 196.915 62.8986 198.551 62.3842 200.471L50.7464 243.904C50.2319 245.824 50.5013 247.87 51.495 249.591C52.4888 251.312 54.1257 252.568 56.0456 253.083L85.0009 260.841C86.9208 261.356 88.9664 261.086 90.6877 260.093C92.409 259.099 93.665 257.462 94.1794 255.542L102.506 224.466C102.891 223.026 102.688 221.493 101.942 220.203L91.5722 202.237C90.8269 200.947 89.6002 200.006 88.1613 199.62L71.5627 195.172ZM66.0036 201.441C66.2608 200.481 66.8889 199.663 67.7495 199.166C68.6102 198.669 69.6329 198.534 70.5929 198.791L85.0705 202.671L81.6762 215.339C81.2904 216.779 81.4923 218.313 82.2377 219.604C82.983 220.895 84.2107 221.837 85.6506 222.223L98.3185 225.617L90.56 254.572C90.3028 255.532 89.6748 256.351 88.8141 256.848C87.9535 257.344 86.9307 257.479 85.9707 257.222L57.0154 249.463C56.0555 249.206 55.237 248.578 54.7401 247.717C54.2432 246.857 54.1086 245.834 54.3658 244.874L66.0036 201.441ZM98.5391 221.797L86.6204 218.603C86.1404 218.475 85.7312 218.161 85.4828 217.73C85.2343 217.3 85.167 216.789 85.2956 216.309L88.4892 204.39L98.5391 221.797Z" fill="#5A6D7F"/>
<path d="M150.369 195.172C148.45 194.658 146.404 194.927 144.683 195.921C142.961 196.915 141.705 198.551 141.191 200.471L129.553 243.904C129.039 245.824 129.308 247.87 130.302 249.591C131.296 251.312 132.932 252.568 134.852 253.083L163.808 260.841C165.728 261.356 167.773 261.086 169.494 260.093C171.216 259.099 172.472 257.462 172.986 255.542L181.313 224.466C181.697 223.026 181.494 221.493 180.749 220.203L170.379 202.237C169.634 200.947 168.407 200.006 166.968 199.62L150.369 195.172ZM144.81 201.441C145.068 200.481 145.696 199.663 146.556 199.166C147.417 198.669 148.44 198.534 149.4 198.791L163.877 202.671L160.483 215.339C160.097 216.779 160.299 218.313 161.044 219.604C161.79 220.895 163.017 221.837 164.457 222.223L177.125 225.617L169.367 254.572C169.11 255.532 168.482 256.351 167.621 256.848C166.76 257.344 165.737 257.479 164.778 257.222L135.822 249.463C134.862 249.206 134.044 248.578 133.547 247.717C133.05 246.857 132.915 245.834 133.173 244.874L144.81 201.441ZM177.346 221.797L165.427 218.603C164.947 218.475 164.538 218.161 164.29 217.73C164.041 217.3 163.974 216.789 164.102 216.309L167.296 204.39L177.346 221.797Z" fill="#5A6D7F"/>
<path d="M229.176 195.172C227.256 194.658 225.211 194.927 223.489 195.921C221.768 196.915 220.512 198.551 219.998 200.471L208.36 243.904C207.845 245.824 208.115 247.87 209.109 249.591C210.102 251.312 211.739 252.568 213.659 253.083L242.614 260.841C244.534 261.356 246.58 261.086 248.301 260.093C250.022 259.099 251.279 257.462 251.793 255.542L260.12 224.466C260.504 223.026 260.301 221.493 259.555 220.203L249.186 202.237C248.44 200.947 247.214 200.006 245.775 199.62L229.176 195.172ZM223.617 201.441C223.874 200.481 224.502 199.663 225.363 199.166C226.224 198.669 227.246 198.534 228.206 198.791L242.684 202.671L239.29 215.339C238.904 216.779 239.106 218.313 239.851 219.604C240.597 220.895 241.824 221.837 243.264 222.223L255.932 225.617L248.174 254.572C247.916 255.532 247.288 256.351 246.428 256.848C245.567 257.344 244.544 257.479 243.584 257.222L214.629 249.463C213.669 249.206 212.851 248.578 212.354 247.717C211.857 246.857 211.722 245.834 211.979 244.874L223.617 201.441ZM256.153 221.797L244.234 218.603C243.754 218.475 243.345 218.161 243.096 217.73C242.848 217.3 242.781 216.789 242.909 216.309L246.103 204.39L256.153 221.797Z" fill="#5A6D7F"/>
<path d="M307.983 195.172C306.063 194.658 304.018 194.927 302.296 195.921C300.575 196.915 299.319 198.551 298.805 200.471L287.167 243.904C286.652 245.824 286.922 247.87 287.915 249.591C288.909 251.312 290.546 252.568 292.466 253.083L321.421 260.841C323.341 261.356 325.387 261.086 327.108 260.093C328.829 259.099 330.085 257.462 330.6 255.542L338.927 224.466C339.311 223.026 339.108 221.493 338.362 220.203L327.992 202.237C327.247 200.947 326.02 200.006 324.582 199.62L307.983 195.172ZM302.424 201.441C302.681 200.481 303.309 199.663 304.17 199.166C305.03 198.669 306.053 198.534 307.013 198.791L321.491 202.671L318.096 215.339C317.711 216.779 317.913 218.313 318.658 219.604C319.403 220.895 320.631 221.837 322.071 222.223L334.739 225.617L326.98 254.572C326.723 255.532 326.095 256.351 325.234 256.848C324.374 257.344 323.351 257.479 322.391 257.222L293.436 249.463C292.476 249.206 291.657 248.578 291.16 247.717C290.664 246.857 290.529 245.834 290.786 244.874L302.424 201.441ZM334.959 221.797L323.041 218.603C322.561 218.475 322.152 218.161 321.903 217.73C321.655 217.3 321.587 216.789 321.716 216.309L324.91 204.39L334.959 221.797Z" fill="#5A6D7F"/>
<path d="M386.79 195.172C384.87 194.658 382.824 194.927 381.103 195.921C379.382 196.915 378.126 198.551 377.611 200.471L365.973 243.904C365.459 245.824 365.728 247.87 366.722 249.591C367.716 251.312 369.353 252.568 371.273 253.083L400.228 260.841C402.148 261.356 404.193 261.086 405.915 260.093C407.636 259.099 408.892 257.462 409.406 255.542L417.733 224.466C418.118 223.026 417.915 221.493 417.169 220.203L406.799 202.237C406.054 200.947 404.827 200.006 403.388 199.62L386.79 195.172ZM381.231 201.441C381.488 200.481 382.116 199.663 382.977 199.166C383.837 198.669 384.86 198.534 385.82 198.791L400.298 202.671L396.903 215.339C396.517 216.779 396.719 218.313 397.465 219.604C398.21 220.895 399.438 221.837 400.878 222.223L413.546 225.617L405.787 254.572C405.53 255.532 404.902 256.351 404.041 256.848C403.181 257.344 402.158 257.479 401.198 257.222L372.242 249.463C371.283 249.206 370.464 248.578 369.967 247.717C369.47 246.857 369.336 245.834 369.593 244.874L381.231 201.441ZM413.766 221.797L401.847 218.603C401.367 218.475 400.958 218.161 400.71 217.73C400.461 217.3 400.394 216.789 400.523 216.309L403.716 204.39L413.766 221.797Z" fill="#5A6D7F"/>
<path d="M465.597 195.172C463.677 194.658 461.631 194.927 459.91 195.921C458.188 196.915 456.932 198.551 456.418 200.471L444.78 243.904C444.266 245.824 444.535 247.87 445.529 249.591C446.523 251.312 448.16 252.568 450.079 253.083L479.035 260.841C480.955 261.356 483 261.086 484.721 260.093C486.443 259.099 487.699 257.462 488.213 255.542L496.54 224.466C496.925 223.026 496.721 221.493 495.976 220.203L485.606 202.237C484.861 200.947 483.634 200.006 482.195 199.62L465.597 195.172ZM460.037 201.441C460.295 200.481 460.923 199.663 461.783 199.166C462.644 198.669 463.667 198.534 464.627 198.791L479.104 202.671L475.71 215.339C475.324 216.779 475.526 218.313 476.271 219.604C477.017 220.895 478.244 221.837 479.684 222.223L492.352 225.617L484.594 254.572C484.337 255.532 483.709 256.351 482.848 256.848C481.987 257.344 480.964 257.479 480.005 257.222L451.049 249.463C450.089 249.206 449.271 248.578 448.774 247.717C448.277 246.857 448.142 245.834 448.4 244.874L460.037 201.441ZM492.573 221.797L480.654 218.603C480.174 218.475 479.765 218.161 479.517 217.73C479.268 217.3 479.201 216.789 479.329 216.309L482.523 204.39L492.573 221.797Z" fill="#5A6D7F"/>
<path d="M544.403 195.172C542.483 194.658 540.438 194.927 538.717 195.921C536.995 196.915 535.739 198.551 535.225 200.471L523.587 243.904C523.073 245.824 523.342 247.87 524.336 249.591C525.329 251.312 526.966 252.568 528.886 253.083L557.841 260.841C559.761 261.356 561.807 261.086 563.528 260.093C565.25 259.099 566.506 257.462 567.02 255.542L575.347 224.466C575.731 223.026 575.528 221.493 574.782 220.202L564.413 202.237C563.668 200.947 562.441 200.006 561.002 199.62L544.403 195.172ZM538.844 201.441C539.101 200.481 539.729 199.663 540.59 199.166C541.451 198.669 542.474 198.534 543.433 198.791L557.911 202.671L554.517 215.339C554.131 216.779 554.333 218.313 555.078 219.604C555.824 220.895 557.051 221.837 558.491 222.223L571.159 225.617L563.401 254.572C563.143 255.532 562.515 256.351 561.655 256.848C560.794 257.344 559.771 257.479 558.811 257.222L529.856 249.463C528.896 249.206 528.078 248.578 527.581 247.717C527.084 246.857 526.949 245.834 527.206 244.874L538.844 201.441ZM571.38 221.797L559.461 218.603C558.981 218.475 558.572 218.161 558.323 217.73C558.075 217.3 558.008 216.789 558.136 216.309L561.33 204.39L571.38 221.797Z" fill="#5A6D7F"/>
<path d="M623.21 195.172C621.29 194.658 619.245 194.927 617.523 195.921C615.802 196.915 614.546 198.551 614.032 200.471L602.394 243.904C601.879 245.824 602.149 247.87 603.142 249.591C604.136 251.312 605.773 252.568 607.693 253.083L636.648 260.841C638.568 261.356 640.614 261.086 642.335 260.093C644.056 259.099 645.312 257.462 645.827 255.542L654.154 224.466C654.538 223.026 654.335 221.493 653.589 220.202L643.22 202.237C642.474 200.947 641.247 200.006 639.809 199.62L623.21 195.172ZM617.651 201.441C617.908 200.481 618.536 199.663 619.397 199.166C620.257 198.669 621.28 198.534 622.24 198.791L636.718 202.671L633.324 215.339C632.938 216.779 633.14 218.313 633.885 219.604C634.63 220.895 635.858 221.837 637.298 222.223L649.966 225.617L642.207 254.572C641.95 255.532 641.322 256.351 640.461 256.848C639.601 257.344 638.578 257.479 637.618 257.222L608.663 249.463C607.703 249.206 606.884 248.578 606.387 247.717C605.891 246.857 605.756 245.834 606.013 244.874L617.651 201.441ZM650.186 221.797L638.268 218.603C637.788 218.475 637.379 218.161 637.13 217.73C636.882 217.3 636.814 216.789 636.943 216.309L640.137 204.39L650.186 221.797Z" fill="#5A6D7F"/>
<path d="M702.017 195.172C700.097 194.658 698.051 194.927 696.33 195.921C694.609 196.915 693.353 198.551 692.838 200.471L681.2 243.904C680.686 245.824 680.955 247.87 681.949 249.591C682.943 251.312 684.58 252.568 686.5 253.083L715.455 260.841C717.375 261.356 719.42 261.086 721.142 260.093C722.863 259.099 724.119 257.462 724.633 255.542L732.96 224.466C733.345 223.026 733.142 221.493 732.396 220.202L722.026 202.237C721.281 200.947 720.054 200.006 718.615 199.62L702.017 195.172ZM696.458 201.441C696.715 200.481 697.343 199.663 698.204 199.166C699.064 198.669 700.087 198.534 701.047 198.791L715.525 202.671L712.13 215.339C711.744 216.779 711.946 218.313 712.692 219.604C713.437 220.895 714.665 221.837 716.105 222.223L728.773 225.617L721.014 254.572C720.757 255.532 720.129 256.351 719.268 256.848C718.408 257.344 717.385 257.479 716.425 257.222L687.469 249.463C686.51 249.206 685.691 248.578 685.194 247.717C684.697 246.857 684.563 245.834 684.82 244.874L696.458 201.441ZM728.993 221.797L717.074 218.603C716.595 218.475 716.185 218.161 715.937 217.73C715.688 217.3 715.621 216.789 715.75 216.309L718.943 204.39L728.993 221.797Z" fill="#5A6D7F"/>
</g>
<defs>
<clipPath id="clip0_742_1883">
<rect width="747" height="220" fill="white"/>
</clipPath>
</defs>
</svg>
